<svg width="73" height="71" viewBox="0 0 73 71" fill="none" xmlns="http://www.w3.org/2000/svg">
<path d="M23.3182 1.18182V71H16.9432V7.86363H16.5341L0.170455 18.7386V12.125L16.6705 1.18182H23.3182ZM28.6827 71V66.3295L51.4895 40.6932C54.4668 37.3295 56.8645 34.4545 58.6827 32.0682C60.5009 29.6818 61.8191 27.4773 62.6373 25.4545C63.4782 23.4318 63.8986 21.3295 63.8986 19.1477C63.8986 16.4886 63.2736 14.1705 62.0236 12.1932C60.7964 10.1932 59.1032 8.63636 56.9441 7.52272C54.785 6.40909 52.3532 5.85227 49.6486 5.85227C46.785 5.85227 44.2736 6.46591 42.1145 7.69318C39.9782 8.92045 38.3191 10.6023 37.1373 12.7386C35.9555 14.875 35.3645 17.3295 35.3645 20.1023H29.2623C29.2623 16.2386 30.1486 12.8182 31.9214 9.84091C33.7168 6.84091 36.16 4.48863 39.2509 2.78409C42.3645 1.07954 45.8873 0.22727 49.8191 0.22727C53.7055 0.22727 57.16 1.06818 60.1827 2.75C63.2055 4.40909 65.5805 6.67045 67.3077 9.53409C69.035 12.3977 69.8986 15.6023 69.8986 19.1477C69.8986 21.7159 69.4441 24.2045 68.535 26.6136C67.6486 29.0227 66.1145 31.7045 63.9327 34.6591C61.7509 37.6136 58.7282 41.2273 54.8645 45.5L37.5464 64.8295V65.2727H72.0805V71H28.6827Z" fill="#F8F8F8"/>
</svg>
